<svg xmlns="http://www.w3.org/2000/svg" xmlns:xlink="http://www.w3.org/1999/xlink" width="1000" zoomAndPan="magnify" viewBox="0 0 750 225" height="300" preserveAspectRatio="xMidYMid meet" version="1.0"><defs><clipPath id="656920584d"><path d="M 0 122 L 127 122 L 127 221.660156 L 0 221.660156 Z M 0 122 " clip-rule="nonzero"/></clipPath><clipPath id="5cbd7c7355"><path d="M 0 3.410156 L 127 3.410156 L 127 104 L 0 104 Z M 0 3.410156 " clip-rule="nonzero"/></clipPath><clipPath id="b00adc943d"><path d="M 200 3.410156 L 372 3.410156 L 372 221.660156 L 200 221.660156 Z M 200 3.410156 " clip-rule="nonzero"/></clipPath><clipPath id="db8c2f64fa"><path d="M 393 3.410156 L 558 3.410156 L 558 220 L 393 220 Z M 393 3.410156 " clip-rule="nonzero"/></clipPath><clipPath id="de1fbd1aa8"><path d="M 557 3.410156 L 750 3.410156 L 750 220 L 557 220 Z M 557 3.410156 " clip-rule="nonzero"/></clipPath></defs><g clip-path="url(#656920584d)"><path fill="#f58020" d="M 87.253906 122.03125 C 82.246094 126.105469 77.007812 130.261719 71.46875 134.519531 C 50.175781 150.867188 24.21875 160.078125 0.976562 165.265625 L 0.976562 221.660156 C 31.921875 215.628906 68.746094 203.664062 99.605469 179.964844 C 109.304688 172.523438 118.085938 165.402344 126.261719 158.535156 Z M 87.253906 122.03125 " fill-opacity="1" fill-rule="evenodd"/></g><g clip-path="url(#5cbd7c7355)"><path fill="#8fc741" d="M 87.257812 103.03125 L 126.257812 66.535156 C 118.082031 59.675781 109.292969 52.546875 99.601562 45.109375 C 68.746094 21.414062 31.914062 9.441406 0.976562 3.410156 L 0.976562 59.800781 C 24.214844 64.984375 50.171875 74.199219 71.464844 90.550781 C 77.003906 94.800781 82.246094 98.957031 87.257812 103.03125 Z M 87.257812 103.03125 " fill-opacity="1" fill-rule="evenodd"/></g><path fill="#2fabe1" d="M 135.722656 76.605469 L 97.621094 112.53125 L 135.722656 148.460938 C 149.222656 136.785156 172.648438 113.515625 173.699219 112.53125 C 172.648438 111.558594 149.222656 88.285156 135.722656 76.605469 Z M 135.722656 76.605469 " fill-opacity="1" fill-rule="evenodd"/><g clip-path="url(#b00adc943d)"><path fill="#161748" d="M 329.714844 219.136719 L 329.714844 199.796875 C 314.3125 215.355469 299.738281 221.660156 273.507812 221.660156 C 247.28125 221.660156 229.792969 215.355469 216.886719 202.316406 C 206.058594 190.964844 200.230469 174.5625 200.230469 156.480469 C 200.230469 120.738281 224.796875 95.082031 273.09375 95.082031 L 328.882812 95.082031 L 328.882812 79.945312 C 328.882812 53.03125 315.558594 39.996094 282.667969 39.996094 C 259.351562 39.996094 248.109375 45.460938 236.453125 60.601562 L 208.558594 34.109375 C 228.542969 10.5625 249.359375 3.410156 284.332031 3.410156 C 342.207031 3.410156 371.351562 28.222656 371.351562 76.578125 L 371.351562 219.136719 Z M 328.882812 124.941406 L 279.335938 124.941406 C 254.355469 124.941406 241.449219 136.292969 241.449219 155.636719 C 241.449219 174.984375 253.523438 185.914062 280.171875 185.914062 C 296.410156 185.914062 308.484375 184.65625 319.726562 173.71875 C 325.96875 167.414062 328.882812 157.320312 328.882812 142.179688 Z M 328.882812 124.941406 " fill-opacity="1" fill-rule="evenodd"/></g><g clip-path="url(#db8c2f64fa)"><path fill="#161748" d="M 393.222656 219.015625 L 393.222656 184.503906 L 487.941406 91.457031 C 497.355469 81.949219 500.882812 75.449219 500.882812 65.4375 C 500.882812 48.933594 489.707031 37.929688 469.703125 37.929688 C 453.820312 37.929688 438.523438 44.429688 438.523438 65.4375 L 393.222656 65.4375 C 393.222656 26.921875 426.167969 3.410156 469.703125 3.410156 C 513.828125 3.410156 546.183594 26.921875 546.183594 65.4375 C 546.183594 85.949219 536.179688 97.453125 519.121094 114.464844 L 447.933594 184.503906 L 557.65625 183.972656 L 536.152344 219.304688 Z M 393.222656 219.015625 " fill-opacity="1" fill-rule="evenodd"/></g><g clip-path="url(#de1fbd1aa8)"><path fill="#161748" d="M 697.8125 219.304688 L 653.679688 145.636719 L 609.132812 219.304688 L 557.917969 219.304688 L 630.363281 109.011719 L 560.832031 3.410156 L 612.042969 3.410156 L 653.679688 73.667969 L 694.894531 3.410156 L 746.109375 3.410156 L 676.996094 109.011719 L 749.023438 219.304688 Z M 697.8125 219.304688 " fill-opacity="1" fill-rule="evenodd"/></g></svg>